<?xml version="1.0" encoding="utf-8"?>
<!-- Generator: Adobe Illustrator 21.0.0, SVG Export Plug-In . SVG Version: 6.00 Build 0)  -->
<svg version="1.1" xmlns="http://www.w3.org/2000/svg" xmlns:xlink="http://www.w3.org/1999/xlink" x="0px" y="0px"
	 viewBox="0 0 1400 1400" style="enable-background:new 0 0 1400 1400;" xml:space="preserve">
<style type="text/css">
	.st0{fill:#020000;stroke:#FFFFFF;stroke-miterlimit:10;}
	.st1{stroke:#FFFFFF;stroke-miterlimit:10;}
	.st2{fill:#050000;stroke:#FFFFFF;stroke-miterlimit:10;}
	.st3{fill:#070000;stroke:#FFFFFF;stroke-miterlimit:10;}
</style>
<g id="Layer_1">
	
		<image style="overflow:visible;" width="350" height="202" xlink:href="C:\Users\Abim\Downloads\350px-Nepal_grey.svg.png"  transform="matrix(3.8743 0 0 3.8743 22 359)">
	</image>
</g>
<g id="Layer_2">
	<path class="st0" d="M107,721l-8-3c-4-6-5-8-5-8s2,0-2,0s-2,0-4,0s-4,0-6-2s-4-4-4-4c-4-4-8-11-13-14s-5,2-10-4s-5-6-5-6
		s-16-8-18-8s-6,5-6,0s0-9,0-12s-3-3,0-5s3-3,3-3l3-10l4-6c0,0-5,10,0-3s7-15,7-16s0-5,1-5s7-6,7-6l4-4c0,0,5,0,5-2s-2-5,1-6
		s5-9,5-9v-6c0,0-1-7-2-10s0-9-2-11s-6,0-3-4s1-2,3-4s8-10,8-10s-1,0,1-2s5-6,5-6s2-1,4-4s3-5,3-5s-2-6-2-9s-1-4-1-10s3-10,4-12
		s2-6,4-7s7-2,9-3s6-3,6-3s-1,0,1-2s9-5,10-9s1-7,1-7s0,0,2-1s12-4,12-4c7-1,8-2,9-3s6-5,6-5s-2,3,3-5s7-13,9-15s0-2,4-2s3-3,5-6
		s4-6,6-9s7-3,7-3s0,2,4,3s7,2,7,2s8,6,10,7s3,2,4,5s2,10,2,10h2c0,0,0,4,4,6s2,2,4,2s7,1,10,0s8,0,8,0s5,0,7,1s3,2,12,6s7,3,7,3
		s4-2,4,2s-2,6,0,9s-2,2,2,3s6,1,6,1s-1,0,5-2s6-2,6-2s15-1,18-1s4,0,5,1s-1,2,3,4s8,2,8,2s2,2,2,5s-7,12-7,12s0-8-2,3s-3,12-4,17
		s-3,12-3,12s1,2,3,3s3,0,6,2s7,4,7,4s0,4,0,6s-1,4,0,9s-1,6,0,8s0,12,0,12s2,0-2,3s-5,7-5,7s-4,3-5,4s2,1-3,1s-4,1-7,0s-3-2-5-3
		s-9-1-9-1s-9,2-10,4s-1,5-1,8s-2,3-2,10s-3-1,0,7s9,11,9,11s9,2,0,8s-12,5-15,10s-1,15-1,15s2,1,6,7s5,7,7,10s2,5,5,9s4,9,4,10
		s-1,4-4,4s-3,3-7-4s-6-8-6-8s-7-10-11-12s-3-2-7-2s-5-2-10-2s-13-4-13-4s-9,3-13,1s-1-6-6-8s-13,2-13,2s-6,4,0,7s9,7,13,9s4,2,4,2
		s11,3,16,11s8,13,8,13l-2,13c0,0-6,7-10,13s-15,16-16,18s0,8-4,10s-4,2-6,2s-18-2-18-2s-7-6-10-7s-3-1-6-2s-9-9-12-10s0,0-5-3
		s-6-4-8-5s-5-1-7-5s-2-3-7-7s-7-8-8-7s-3,0-3,0s0,3-1,6s-1,7-1,7s0,3,0,4s0,2-1,3S107,721,107,721z"/>
</g>
<g id="Layer_3">
	<path class="st1" d="M225.5,713.5c0,0,12-14,8-22s-1-4-3-7s-4-5-6-8s-6.7-4.4-14-9c-8-5-7-1-13-7c-4.2-4.2-4-3-5-6s-6-6,0-7
		s3-2,10,0s13,3,15,6s9,1,9,1s2,2,10,2s7,1,12,2s10-1,11,3s5,4,9,13s4,9,4,9s9,9,10,0s-4-11-8-20c-4.4-9.8-9-10-10-13s-2,0-3-3
		s-2-7-2-10s4-9,4-9s10-8,12-10s3,1,2-2s-5.5-3.4-8-10c-6-16-1-18.1,0-20c1.4-2.6-4-9,2-11s16-3,16-3l5,2c0,0,8-3,10-2s8,0,8,0
		s3-5,5-7s0-1,2-7s-1-9-1-11s2,1,1-11c-0.9-11.4-9-15-13-14s-7-4-4-14s7-18,7-18s8-13,10-13s-3-8-5-8s-4-2-7-4s-6-3-13-2s-10,3-14,2
		s-7,3-7,3s-9,6-9-1s0-11,0-11s-16-8-23-10s-9-5-9-5s1-9,1-14s-3,0,0-5s11-7,11-7s2,2,3-6s-1-12,3-14s4,12,4,0s0-15,0-18s0-6,4-7
		s9,0,9,0s5,8,10,5s5-7,9-8s13-1,13-1s4,1,11,5s3,9,14,10s26,1,26,1s-8-1,3,2s14-1,18-1s3,24,3,24s8,3,9,5s0,17,0,17v4
		c0,0,25,4,29,6s4,3,8,6s6,5,6,5c10,4,17,8,17,8l17,16l16,10c0,0,2,1,5,7s5,10,5,10l13,5l31,11l22,11l3-2l16,8v4c0,0,19,23,21,27
		s-5-7,0,4s9,21,9,21l8,4l15,9c0,0,0,2,0,8s0,15,0,15s7-3-3,9s-18,23-18,23l-9,12l-3,10l-23,4c0,0-8,3-19,3s-10,1-16,0s-16-3-16-3
		s-18-13-21-12s-10,3-20,1s-13-1-13-1l-10,4l-2,13l-3,7c0,0,0,5,0,9s-5,20-5,20l-7,1l-15,9l-3,16l2,16l1,9c0,0,2,4-2,9s-6,12-10,6
		s-6-7-10-7s-28-2-28-2s-1-3-4-1s-1,12-9,14s-8-2-8-2l-28-19l-9-11l-5-6l-22-18l-14-13c0,0,11,6-3-1s-15-10-19-13s-5,0-7-3
		S225.5,713.5,225.5,713.5z"/>
</g>
<g id="Layer_4">
	<path class="st1" d="M204.5,739.5c6-7,7-8,9-14s-6-4,0-6s21-9,23-10s5,0,5,0s6,2,14,6s11,9,11,9s8-2,18,8s22,14,23,19s0,3,3,8
		s10,14,10,14s18,9,22,14s9,8,11,8s2,2,5-3s-1-6,5-8s10-2,10-2s15-2,24,0s14,0,17,2s1,5,3,2s0-1,1-10s3-2,0-9s-5-17-4-21s-11,3,1-7
		s11-9,19-13s6,7,8-4s3-27,3-27s5-9,6-13s-1-11,5-13s8,0,8,0l29-1l26,6c0,0,12,7,14,9s3,10,3,10s-7,13-13,14s-12,2-12,2s-9,20-10,23
		s-2,6,0,8s9,14,9,14s-2,0,3,4s8,3,12,9s11,8,11,8s14,8,23,12s15,5,15,5s3-5,4-2s-1,7,4,9s6,2,11,3s13-1,14,2s0,15,0,15s1,7-6,9
		s-11,10-11,10s8,5,13,7s19-2,24,0s4-2,9,0s14,6,19,7s11,0,11,0s15-4,17,0s7,7-3,15s-26,10-32,12s-15,3-15,3s-8-7-1,5s7,23,7,23
		s0,2,2,4s6,8,6,8l12,1c0,0,2,6,1,11s3,13-1,14s-7,2-12,0s-10-6-10-6s-10-10-14-11s-4-1-4-1s-25-3-30-3s-5,9-6,11s1,0-2,6
		s-13,3-15,5s1,3-2,0s-4-6-4-6l-8-4l-4-7l-4-2c0,0-13,0-18,0s-12-1-12-1l-8-5c0,0-4-1-8-2s-14-2-14-2h-7h-6c0,0,3-15,3-18
		s-6-14-6-14l-5-6l-11,1h-7l-17,1l-15-5c0,0,1,1-8-5s-13-9-13-9l-8-5l-3-4l-11-3l-9-7c0,0,1-2-6-4s-7-2-7-2l-8,15l-6,1c0,0-2,6-6-1
		s0-10-8-12s-15-9-15-9l-11-5l-10-2c0,0,1-1-4-7s-6-7-9-7s1,9-3,0s-7-13-7-13l-9-4l-17,5l-1-11l-4-8l-4-8c0,0-2-11-3-14s-11-3-11-3
		l-8-1l-5-11l4-2L204.5,739.5z"/>
</g>
<g id="Layer_5">
	<path class="st2" d="M532.5,772.5c0,0,9,7-5-2s-5-13-14-12s-10,5-11-7s-4-14-1-20s-1-18,8-22s13-5,13-5l8-3c0,0,3,1,5-6s3-10,3-10
		s14,2,19,0s5,0,5,0s6,1,18-6s6-3,12-9s0,7,2-3s2-11,2-11s4,1,7-3s19-26,19-26v-6v-7v-8c5-8,5-8,5-8l9-7c0,0,5-9,10-12s0-6,12-5
		s11-3,20,0s18,2,21,8s1,6,1,6s8,4,10,10s-4,6,3,16s9,8,10,14s-2,17-1,21s5,6,10,9s1,4,9,8s11-2,14,7s3,9,3,9s25-5,26-1s-14,5,0,8
		s17,10,17,10l8,7l4,3c0,0,8,7,13,8s2,6,10,0s10-18,10-18s9,1,14,0s5,0,5,0h5l7,9l-4,17c0,0-10,12-9,16s1,4,1,4l-5,21
		c0,0-14,16-17,20s-6,13-6,13s-6,7-11,8s-10,0-10,0l-5,30l-4,16c0,0,3,0-1,4s-18,0-18,0s5,6-4,2s-15-4-15-4l-9,5c0,0-9,7-8,12
		s1,5,1,5s-11,13-17,14s-16,0-16,0l-8,9l-12,7l-20,7h-9l-4,13l-11-5c0,0-3,0-10,1s-8-12-8-12s-1-3-3-12s-4-16-4-16c11-3,26-5,26-5
		l5-5l18-7c2-11-8-16-11-15s-5,4-5,4s-11-4-17-3s-5-4-14-5s-24,1-24,1s-10-4-15-5s-4-5-4-5l10-10l2-10c4-6,8,2.1,4-6
		c-3.6-7.2,5-5-1-9c-8.7-5.8-6,0-14-1s-18-7-18-7l-10-6l-12-6l-7-4l-11-2L532.5,772.5z"/>
</g>
<g id="Layer_6">
	<path class="st3" d="M663.5,923.5c4-5,7-10,7-10l15-3c11-3,29-10.2,32-15c4-6.3,7-3.2,9-3c4.5,0.3,3-7,9-8s6-1,6-1s-1-4,4-7
		s8-8,8-8l5-9l10-7h7h10c0,0,7,4,11,6s0,2,0,2l8-16v-13c0,0,1-1,6-10s10-17,10-17c14-1,22-12,22-12v-12v-8c0,0-10,3,0-5s18-12,18-12
		l14,7h12l4,4l11,1h9c0,0,4-16,10-12s12,1,16,5s0,4,0,4l11,3l6-13c0,0,0,1,4,0s7-7,10,0s-3-17,0,7s1,24,1,24s8-2,11,2s12,14,12,14
		l5,6l1,7l13,23h15v-9v-13c3-10,11-14,11-14s-1-2,2-6s8-1,10,4s3-7,2,5s0,16,0,16l4,6l6,4l17,7c0,0,7,2,11,0s12,0,12,0v13v13v13
		c0,0,6,5,0,12s-12,11-12,11l-14,7c0,0,1,8-8,12s1-10-9,5s-11,27-11,27v9l9,8l5,5c0,0,3-3,4,6s0,16,0,16l4,15l-8,13c0,0,0,3-3,4
		s-17,0-17,0l-11-16l-21-4l-9-8l-17-14l-9-3c0,0-14,3-15,0s-7-2-15,0s-21,4-26,1s-12-13-12-13s-4-1-12,0s-22,0-22,0l-9-16l-13-8
		l-5-2l-28-5l-20-12l-15-2c0,0-1,2-6,7s-13,8-13,8s-5,3-13,4s-16-3-16-3l-16-8c0,0,2,3-6-2s-12-8-12-8l-7,5l-12,3l-13,1L663.5,923.5
		z"/>
</g>
<g id="Layer_7">
	<path class="st1" d="M767.5,925.5h7c0,0,5-3,11,0s11,1,11,1s11,3,16,6s15,8,15,8c15-1,25,0,25,0s14,6,17,12s14,12,14,12s-2-6,4,0
		s12,2,18,5s8,5,16,10s22,2,22,2s-6,3,10-4s14-4,14-4s1-4,6,2s14,13,14,13l10,4l8,11c0,0-4-9,8,0s22,6,22,6l13.3,11.6l6.7,2.4
		c0,0-2,14,0,15s10,0,10,0s11-6,17-5s6,1,6,1l13,22v8c0,0-10,3,5,6s33,0,33,0h15c0,0-1-5,5-4s12,0,12,0v16l-18,27c-4,5-7,9-15,10
		s-13-1-18,0s-9,13-14,0s-19-17-24-20s-13-10-13-10l-15-4h-12c0,0-4,1-10-1s-19-9-19-9l-8,1l-13,13h-16l-9-13c0,0,4-7,0-12
		s-8-9-10-13s12,2-2-4s-20-5-26,0s-13,6-13,6l-18,1l-19,1l-2-16l-10-3l-11,3l-12,1c0,0-1-2-4-10s-3-6-3-6l-13-7c0,0-9-1-14-3
		s-20-4-20-4l-4-18c0,0,0-5,2-10s2-5,2-5l-7-14l-8-9l-12-8L767.5,925.5z"/>
</g>
<g id="Layer_8">
	<path class="st0" d="M1062.5,1023.5c-10.9-1-9.5-2.1,2-8c7-3.6-2.1,4.9,4-6c4-7.3-12.3-1.7-4-15c2.4-3.8,2-6,2-6s-1,2-2-3s0-9,0-9
		c-7-2-19-7-19-7s-6-1-2-15s4-21,4-21l8-5v-6c0,0,11-14,18-16s21-19,21-19v-6c0,0,0-7,4-13s4-6,4-6v-18c0,0-6-10-9-13s-5,14-3,0
		s6-23,6-23h6h9c0,0,3,1,7,0s3-3,12,0s0-16,9,0s15,21,15,21l21,6c8,2,11,3,15,8s7,6,12,7s-7-3,5,1s22,6,26,7s12-3,16-5s-3-3,9-2
		s12,1,12,1l22-1c0,0-1,6,6-1s11-13,11-13l4-2l8,4l15,5l23,5l7,2l2,22c0,0,11-15,0,5s-20,34-20,34s-2,0-1,6s1,6,1,6s-2,13-1,22
		s-3,23-2,28s4-6,1,5s-6,22-6,22l5,8c0,0,13,5,16,14s2,7,4,19s3,6,2,12s-1,29-1,29l-2,11l-8,14c0,0-1,0-2,4s-10,19-10,19h-5
		c0,0-9-7-14-10s-5-3-5-3l-20,5c0,0-12,2-15,3s-7,9-14,5s-7-4-7-4s-14-7-17-6s-8,4-8,4l-9,7h-8h-5l-10-10c0,0-14-1-17-2s-5-6-5-6
		s4-14-3-13c-3.9,0.6-8.4,0.5-11.7,0.3c-2.6-0.1-4.3-0.3-4.3-0.3l5-18l-8-17c0,0-3.7,0.8-7,3c-6,4-12,1-12,1l-21,3c0,0-23,2-25-6
		s-3-18-3-18c-17-17-22-15-22-15s4-1-4,2c-11.1,4.2-15.6,5-15-1c0,0-16,1-8-3S1062.5,1023.5,1062.5,1023.5z"/>
</g>
<g id="Layer_9">
</g>
</svg>
